<?xml version="1.0" encoding="UTF-8"?>
<svg width="728px" height="929px" viewBox="0 0 728 929" version="1.1" xmlns="http://www.w3.org/2000/svg" xmlns:xlink="http://www.w3.org/1999/xlink">
    <!-- Generator: Sketch 43.2 (39069) - http://www.bohemiancoding.com/sketch -->
    <title>qr-code-logo</title>
    <desc>Created with Sketch.</desc>
    <defs></defs>
    <g id="Page-1" stroke="none" stroke-width="1" fill="none" fill-rule="evenodd">
        <g id="qr-code-logo" transform="translate(-136.000000, -36.000000)">
            <g transform="translate(135.000000, 35.000000)">
                <g id="ciao-text" fill="#000000">
                    <g transform="translate(0.417878, 0.795756)">
                        <path d="M169.605548,204.647948 C168.955552,210.064583 166.897261,214.397827 163.430614,217.647809 C157.147316,231.081066 147.505849,244.622452 134.505923,258.272375 C120.42267,272.788959 109.047905,280.047142 100.381288,280.047142 C99.0812951,280.047142 97.8896531,279.938811 96.8063259,279.722145 C87.2730468,276.688829 76.5482686,272.897241 64.6316697,268.347267 C43.3984571,259.680649 27.1487932,243.105992 15.8821906,218.622798 C5.91558061,196.522924 0.932350354,170.848455 0.932350354,141.598621 C0.932350354,105.848824 7.75720918,74.3244766 21.4071316,47.0246318 C35.9237157,17.9914635 54.1233392,2.93344164 76.0065482,1.85011447 C84.4565001,1.4167836 96.8604102,5.7500273 113.218651,14.8499756 C129.576891,23.9499238 140.355835,32.99557 145.555805,41.9871856 C150.755775,50.9788011 154.330702,70.6408944 156.28069,100.974055 C156.714021,107.474018 155.847373,114.082215 153.680718,120.798843 C151.080733,128.815465 147.722469,132.498722 143.605826,131.848725 C136.022536,130.765398 126.489399,128.382114 115.006131,124.698802 C101.139544,120.148828 93.6646982,116.357239 92.5813711,113.323923 C92.1480402,112.240596 91.931378,111.265616 91.931378,110.398955 C91.931378,108.448966 92.8521923,106.011516 94.6938485,103.086533 C96.5355047,100.161549 97.456319,97.7240998 97.456319,95.7741109 C98.5396461,86.890828 99.0813016,78.5493339 99.0813016,70.7493783 C99.0813016,59.4827757 97.7813285,51.682937 95.1813433,47.3496283 C82.1814172,56.8829074 72.3232878,72.807578 65.6066593,95.1241178 C59.973358,113.974011 57.1567496,135.315236 57.1567496,159.148434 C57.1567496,177.564996 58.781716,193.977156 62.0316975,208.385408 C65.281679,222.793659 69.1815983,231.514312 73.7315725,234.547628 C75.8982268,235.847621 81.9106025,231.460211 91.7688797,221.385269 C101.627157,211.310326 107.964526,203.23966 110.781177,197.173027 C110.997842,196.956362 111.972822,193.489767 113.706145,186.773139 C115.006138,182.873161 116.739435,180.489877 118.90609,179.623215 C122.589402,178.323222 132.068373,181.410658 147.343286,188.885616 C162.618199,196.360573 170.038879,201.614631 169.605548,204.647948 Z" id="C"></path>
                        <path d="M277.624756,17.7749443 C277.624756,19.2916024 277.137266,21.3498931 276.162272,23.9498783 C275.187277,26.5498635 274.591456,28.1748299 274.374791,28.8248262 C273.074798,33.1581349 271.774825,39.8746627 270.474833,48.9746109 L270.474833,248.522479 C270.474833,251.122464 271.124819,253.451582 272.424812,255.509904 C273.724804,257.568226 274.374791,259.247358 274.374791,260.54735 C274.374791,274.413938 271.774845,281.888783 266.574874,282.972111 C264.624885,283.405441 257.041709,281.997137 243.825117,278.747156 C229.95853,275.280509 221.942029,272.572231 219.775374,270.622243 C215.008735,266.505599 212.625451,262.714011 212.625451,259.247364 C212.625451,258.380702 213.058775,257.405723 213.925437,256.322395 C214.792099,255.239068 215.225423,253.39744 215.225423,250.797454 L215.225423,21.6749026 C215.225423,20.37491 214.846264,19.0207714 214.087935,17.612446 C213.329606,16.2041207 212.950447,14.8499821 212.950447,13.5499895 C213.383778,8.35001902 217.392029,4.88342406 224.975319,3.15010058 C227.358639,2.71676971 232.341869,2.71676971 239.925159,3.15010058 C249.241773,3.80009688 257.041611,4.9917389 263.324909,6.72506238 C272.858188,9.3250476 277.624756,13.0083047 277.624756,17.7749443 Z" id="I"></path>
                        <path d="M516.486124,255.022409 C516.269459,256.972398 515.836134,261.630635 515.186138,268.99726 C514.969473,272.897238 514.102824,275.822177 512.586166,277.772166 C511.502839,278.422162 509.66121,278.747156 507.061225,278.747156 C499.911266,278.747156 491.028116,276.905527 480.41151,273.222215 C468.928242,269.755568 461.128403,265.638986 457.01176,260.872347 C455.278436,258.922358 453.545139,252.422492 451.811815,241.372555 C449.428496,226.855971 446.720218,214.83122 443.686902,205.297941 C435.453616,206.381268 423.428864,209.360373 407.612288,214.235345 C391.795711,219.110317 381.504257,223.172733 376.737617,226.422715 C373.487636,235.739329 369.154392,247.222424 363.737756,260.872347 C363.08776,263.905663 362.383608,266.776437 361.625279,269.484755 C360.86695,272.193073 358.971156,274.41386 355.93784,276.147184 C355.287843,276.580514 354.312864,276.797177 353.012871,276.797177 C347.812901,276.797177 339.092248,274.088899 326.850651,268.672263 C314.609053,263.255628 308.271685,259.680701 307.838354,257.947378 C306.971692,254.914062 309.029983,247.439217 314.013288,235.522618 C320.946582,218.189383 324.954832,207.572936 326.038159,203.672958 C321.488185,199.122984 319.213232,194.573078 319.213232,190.023104 C319.213232,188.939777 319.321563,187.748135 319.538229,186.448142 C319.97156,183.848157 326.579756,179.18992 339.363017,172.473291 L381.287569,29.1498228 C381.937565,26.5498375 382.045896,21.7832695 381.612565,14.8499756 C381.179235,9.00000882 381.829221,5.31675168 383.562545,3.80009363 C384.645872,2.71676646 387.245818,2.175111 391.362461,2.175111 C401.545737,2.175111 416.062103,4.77505722 434.911996,9.97502765 C453.761889,15.1749981 465.028322,19.8332351 468.711635,23.9498783 C470.011627,47.9997416 474.886526,84.0739954 483.336478,132.173722 C494.16975,191.540051 505.219522,232.489204 516.486124,255.022409 Z M431.662031,156.223465 C428.84538,142.573543 427.112082,133.582062 426.462086,129.248753 C424.078766,114.732169 422.4538,99.6741472 421.587138,84.0742359 C417.25383,94.6908422 412.162268,109.423871 406.312301,128.273764 C400.029004,147.990318 396.67074,160.340063 396.237409,165.323368 C400.354052,163.590044 412.162141,160.556774 431.662031,156.223465 Z" id="A"></path>
                        <path d="M657.209851,278.097163 C652.659877,278.530494 647.568316,277.934673 641.935014,276.309682 C636.301713,274.684691 630.776827,273.005559 625.360191,271.272236 C618.860228,269.538912 608.677106,266.39731 594.810518,261.847336 C577.477283,254.264046 564.369221,239.314355 555.485938,216.997816 C547.685982,197.281261 543.786063,173.448421 543.786063,145.49858 C543.786063,122.748709 547.685982,96.2075912 555.485938,65.8744304 C566.102544,25.1413286 579.860593,4.77508322 596.760497,4.77508322 C598.277155,4.77508322 600.389611,5.15424204 603.097929,5.91257106 C605.806247,6.67090008 607.918703,7.15839 609.435362,7.37505543 C625.468604,2.8250813 635.760058,0.55012836 640.310032,0.55012836 C642.476686,0.55012836 644.643308,0.658459453 646.809962,0.875124887 C672.809814,4.12510641 693.284391,20.3747703 708.234306,49.624604 C721.667563,76.057787 728.384091,107.582135 728.384091,144.198593 C728.384091,178.865063 722.317549,208.656113 710.184285,233.572638 C697.184359,260.655818 679.526391,275.497177 657.209851,278.097163 Z M651.359914,39.8747082 C646.593274,38.5747156 641.880871,44.96625 637.222565,59.0495033 C632.564258,73.1327565 627.851855,80.1742776 623.085216,80.1742776 C622.001889,80.1742776 620.431088,79.5784565 618.372766,78.3867967 C616.314444,77.1951368 614.635312,76.4909847 613.33532,76.2743192 C605.968695,92.5242268 602.285438,115.707081 602.285438,145.823576 C602.285438,169.440108 604.777053,189.698023 609.760358,206.597927 C615.393659,225.44782 623.193498,235.847604 633.160108,237.797593 C644.860042,239.964248 654.284847,227.939496 661.434806,201.722979 C667.718104,178.756443 670.859705,151.457007 670.859705,119.823854 C670.859705,98.3739758 669.234739,80.3910145 665.984757,65.8744304 C662.51811,50.274519 657.643211,41.6080316 651.359914,39.8747082 Z" id="O"></path>
                    </g>
                </g>
                <g id="cocktail" transform="translate(68.000000, 284.000000)">
                    <g transform="translate(0.289389, 0.893891)" id="Shape">
                        <path d="M433.07627,575.744823 L498.335691,576.057621 C514.634084,576.139936 530.932476,576.353955 547.230868,576.172862 C551.033826,576.172862 551.165531,578.115498 551.659421,580.733119 C552.202701,583.630611 551.033826,584.618392 548.366817,585.26045 C467.149239,604.752669 385.88776,624.294277 304.582379,643.885273 C303.726302,644.08283 302.820836,644.165145 301.553183,644.346238 L298.787395,637.020193 C308.928617,631.768489 318.724116,626.681415 328.519614,621.627267 C352.308682,609.345852 376.031897,596.932733 399.969132,584.93119 C404.64463,582.593441 403.130032,579.695949 402.372733,576.485659 C392.264437,533.780579 382.145166,491.075498 372.01492,448.370418 C362.872454,409.748167 353.784866,371.109453 344.752154,332.454277 C344.102732,329.253128 342.104864,326.48731 339.269968,324.864823 C264.747353,277.297663 190.252176,229.69209 115.784437,182.048103 L109.330932,177.850032 L209.623666,153.698778 C208.520643,152.18418 207.977363,151.179936 207.203601,150.406174 C186.460193,127.62135 165.72776,104.83104 145.006302,82.0352412 C143.375582,79.6945717 140.261659,78.9266586 137.729646,80.2407717 C113.298521,89.229582 88.7850804,98.020836 64.3045659,106.894405 L8.59369775,127.094534 C7.91871383,127.341479 7.19434084,127.440257 6.1407074,127.703666 L0.905466238,113.479614 L38.6716399,99.5848232 L109.199228,73.7214148 C121.84283,69.0788424 134.502894,64.5021222 147.06418,59.7113826 C149.912283,58.6248232 150.834212,60.5674598 152.134791,62.0491318 C176.072026,89.5753055 200.075113,117.068553 223.831254,144.759357 C226.679357,148.051961 229.050032,148.990354 233.297492,147.903794 C258.864566,141.466752 284.497492,135.276656 310.130418,129.135949 C312.648525,128.850711 314.642947,126.876711 314.954084,124.361672 C318.543023,109.544952 328.124502,100.193955 342.809518,97.0330547 C357.873183,93.7404502 370.615563,98.5970418 379.999486,111.076013 C381.645788,113.199743 382.847588,113.924116 385.481672,113.249132 C395.046688,110.779678 404.661093,108.55717 414.423666,106.219421 C413.962701,100.523215 413.205402,95.057492 413.123087,89.5917685 C412.59627,50.2286817 439.859035,14.2899035 477.921543,3.98405145 C517.844373,-6.81569132 557.734277,7.62237942 578.741093,40.4661093 C606.728232,84.1589711 588.882315,143.277685 540.876141,165.354598 C515.918199,176.878714 490.598071,177.520772 465.146238,166.902122 C464.043215,166.441158 462.92373,166.062508 460.717685,165.25582 C460.326369,166.684297 459.802776,168.073197 459.153698,169.404502 C430.376334,218.683816 401.598971,267.968617 372.821608,317.258907 C371.541937,319.508773 371.087774,322.134768 371.537492,324.68373 C391.589453,407.207374 411.745681,489.714555 432.006174,572.205273 C432.236656,573.193055 432.598842,574.098521 433.07627,575.744823 Z M350.662379,308.665209 L199.087331,214.00283 L199.202572,212.669325 L251.390354,200.108039 C240.080257,187.349196 229.428682,175.413505 218.941736,163.379035 C217.402669,161.182984 214.589189,160.281055 212.060193,161.17299 C186.180322,167.560643 160.251061,173.767203 134.338264,180.039614 C133.152926,180.335949 132.000514,180.796913 130.271897,181.373119 C132.115756,182.607846 133.334019,183.44746 134.585209,184.237685 C205.244502,229.434169 275.920257,274.597728 346.612476,319.72836 C349.437517,321.339179 351.425367,324.095744 352.061736,327.284887 C369.797899,402.652605 387.621865,478.009346 405.533633,553.355113 C408.151254,564.401801 410.85119,575.448489 413.567588,586.758585 L334.742637,627.504566 L335.104823,628.34418 L515.012733,585.029968 C513.759521,584.362297 512.347881,584.049232 510.929904,584.124502 C484.161029,584.00926 457.392154,583.877556 430.62328,583.894019 C427.231897,583.894019 425.766688,582.906238 424.927074,579.43254 C404.227567,494.450418 383.43477,409.490247 362.548682,324.552026 C361.723623,321.555807 362.221018,318.349706 363.915113,315.744309 C393.186367,265.894277 422.397256,216.005831 451.547781,166.078971 C452.436785,164.580836 453.194084,163.033312 454.116013,161.403473 L444.946109,155.01582 L350.662379,308.665209 Z M484.012862,10.1741479 C478.316656,12.3801929 472.488746,14.2405145 466.924244,16.841672 C427.511768,35.4119614 410.093891,83.0724116 428.647717,121.217235 C449.14418,163.362572 501.578907,178.953055 542.901093,155.163987 C579.119743,134.354727 593.277942,91.5673312 576.502122,53.9822508 C561.487846,20.1507395 522.091833,1.6792283 484.078714,10.1741479 L484.012862,10.1741479 Z M383.967074,117.76 C389.12,140.034469 380.921415,157.600514 363.009646,163.938778 C354.118699,167.410836 344.227571,167.298705 335.417621,163.625981 C323.498392,158.571833 316.666238,149.286688 314.114469,136.758328 L233.93955,156.05299 C234.910868,157.337106 235.585852,158.291961 236.326688,159.164502 C245.875241,170.260579 255.539035,181.290804 264.955884,192.502122 C266.552069,194.69393 269.415635,195.549631 271.952669,194.592926 C327.926945,181.521286 383.939636,168.493548 439.99074,155.509711 C441.19254,155.229839 442.361415,154.752412 444.040643,154.225595 C431.029487,143.423371 421.437759,129.072956 416.432154,112.919871 C415.70957,111.700571 414.408401,110.941037 412.991383,110.911383 C403.44283,113.002186 393.894277,115.389325 384.032926,117.76 L383.967074,117.76 Z M350.744695,283.773119 L351.633698,284.184695 L420.514984,169.651447 C412.941994,171.462379 406.900064,173.092219 400.759357,174.326945 C397.943142,174.706614 395.587436,176.653743 394.684502,179.348167 C380.559228,212.998585 366.346152,246.610589 352.045273,280.18418 C351.567846,281.369518 351.205659,282.587781 350.744695,283.773119 Z M354.136077,106.795627 C348.324157,108.110533 344.583807,113.775529 345.657621,119.636785 C347.097343,125.495372 352.959728,129.125297 358.845889,127.802816 C364.73205,126.480335 368.478282,120.691581 367.273569,114.780193 C365.746248,109.024728 359.948287,105.500905 354.136077,106.795627 L354.136077,106.795627 Z" fill="#000000" fill-rule="nonzero"></path>
                        <path d="M483.963473,73.128746 C482.400238,72.7457335 480.869862,72.2392779 479.386752,71.6141479 C470.644887,67.0374277 461.952412,62.3783923 453.243473,57.7193569 C442.344952,51.8749839 430.689132,56.6986495 427.445916,68.6343408 C426.324612,72.8179707 425.624198,77.1031849 425.355113,81.4261093 C424.729518,91.6002572 430.771447,98.3336334 440.962058,97.8891318 C455.778778,97.1976849 469.805273,92.8514469 483.420193,87.4021865 C490.005402,84.7681029 490.186495,80.3889389 485.280514,75.2195498 C484.730554,74.5292431 484.235167,73.7971709 483.798842,73.0299678 C485.400563,74.3819752 487.192209,75.4913532 489.116399,76.3225723 C492.409003,77.2115756 496.327203,78.6438585 499.175305,77.6066881 C503.192283,76.1579421 502.764244,71.4824437 502.30328,67.7288746 C500.920386,56.5998714 499.553955,45.4708682 497.858264,34.391254 C497.357447,30.2386709 495.197031,26.4656544 491.869216,23.9318011 C488.541402,21.3979478 484.329624,20.3190697 480.193441,20.9409646 C471.435113,21.961672 464.109068,26.357299 457.853119,32.3004502 C454.379421,35.5930547 452.914212,40.3014791 455.054405,44.6806431 C457.037813,49.1186871 459.829082,53.1492801 463.285916,56.5669453 C469.821736,62.5265595 477.049003,67.6465595 483.963473,73.128746 Z M519.375434,135.424823 C518.766302,133.778521 517.729132,130.601158 516.543794,127.555498 C513.712154,120.624566 510.96283,113.660707 507.75254,106.910868 C505.809904,102.795113 503.702637,97.8726688 498.138135,98.0866881 C492.573633,98.3007074 491.273055,103.305466 489.544437,107.388296 C485.69209,116.492347 482.53119,125.909196 478.201415,134.766302 C472.521672,146.372733 480.588553,157.814534 492.359614,158.818778 C495.652219,159.09865 498.944823,159.032797 502.237428,159.082186 C516.41209,159.230354 523.161929,150.718971 519.375434,135.424823 L519.375434,135.424823 Z M477.674598,92.3904823 L477.493505,93.7733762 C466.512669,97.2306109 455.465981,100.4409 444.56746,104.194469 C439.988545,105.646898 436.322421,109.108978 434.610442,113.597312 C432.898463,118.085645 433.327692,123.10981 435.776206,127.242701 C438.766326,132.225605 442.434228,136.768927 446.674727,140.742379 C452.288617,146.076399 459.285402,146.175177 465.491961,141.450289 C468.360912,139.303116 470.810711,136.646842 472.719228,133.613891 C478.152026,124.674469 483.288489,115.504566 488.227395,106.334662 C490.219421,102.646945 492.244373,97.7080386 488.68836,94.6953055 C486.202444,92.5551125 481.428167,93.0490032 477.674598,92.3904823 Z M505.283087,69.0129904 C507.58791,79.2694534 512.214019,80.9322186 518.914469,75.5981994 C520.186444,74.5739968 521.3959,73.4744913 522.536334,72.3055949 C529.631897,65.2264952 536.661608,58.0815434 543.790096,51.0189068 C552.449646,42.425209 551.083215,30.2754984 540.415177,24.2829582 C536.102599,21.8771168 531.521794,19.9873271 526.767331,18.6526045 C517.317556,15.9691318 509.448232,20.2989068 507.126945,29.9133119 C503.850804,43.4623794 505.348939,57.2748553 505.283087,69.0129904 Z M543.938264,145.714212 C549.947267,144.956913 558.936077,135.737621 562.623794,130.321286 C567.002958,123.900707 566.097492,116.903923 560.286045,111.750997 C557.853988,109.549765 555.072031,107.769312 552.054534,106.48283 C542.489518,102.581093 532.842186,98.8769132 523.11254,95.4855305 C518.914469,94.0203215 513.926174,92.5057235 510.468939,96.4897749 C507.011704,100.473826 509.793955,105.099936 511.604887,109.10045 C515.720643,118.220965 520.149196,127.209775 524.380193,136.2809 C527.562368,143.931686 535.969818,147.986794 543.938264,145.714212 L543.938264,145.714212 Z M579.366688,71.0544051 C576.452733,59.3985852 567.052347,54.6736977 556.318457,59.5302894 C545.584566,64.386881 535.328103,70.247717 525.038714,75.9933119 C521.350997,78.0676527 517.103537,80.9322186 517.877299,85.8711254 C518.651061,90.8100322 523.721672,91.7319614 527.853891,92.7855949 C538.14328,95.3867524 548.465595,97.7245016 558.771447,100.27627 C570.213248,103.042058 580.288617,95.4855305 580.486174,83.6321543 C580.359476,79.421276 579.985671,75.2214675 579.366688,71.0544051 L579.366688,71.0544051 Z" fill="#FFFFFF" fill-rule="nonzero"></path>
                        <path d="M519.375434,135.424823 C523.161929,150.718971 516.41209,159.26328 502.220965,159.082186 C498.92836,159.082186 495.635756,159.082186 492.343151,158.818778 C480.57209,157.830997 472.505209,146.372733 478.184952,134.766302 C482.514727,125.909196 485.675627,116.492347 489.527974,107.388296 C491.256592,103.305466 492.705338,98.3007074 498.121672,98.0866881 C503.538006,97.8726688 505.793441,102.795113 507.736077,106.910868 C511.028682,113.660707 513.695691,120.624566 516.527331,127.555498 C517.794984,130.601158 518.766302,133.745595 519.375434,135.424823 Z" fill="#000000" fill-rule="nonzero"></path>
                        <path d="M483.798842,73.0135048 C484.235167,73.7807078 484.730554,74.5127801 485.280514,75.2030868 C490.219421,80.3724759 489.93955,84.7516399 483.420193,87.3857235 C469.805273,92.8349839 455.729389,97.1812219 440.962058,97.8726688 C430.771447,98.3336334 424.729518,91.6002572 425.355113,81.4096463 C425.624198,77.0867219 426.324612,72.8015077 427.445916,68.6178778 C430.738521,56.6821865 442.344952,51.8585209 453.243473,57.7028939 C461.952412,62.3619293 470.644887,67.0209646 479.386752,71.5976849 C480.869862,72.2228149 482.400238,72.7292705 483.963473,73.112283 L483.798842,73.0135048 Z" fill="#000000" fill-rule="nonzero"></path>
                        <path d="M477.674598,92.3904823 C481.428167,93.0490032 486.185981,92.5551125 488.704823,94.6788424 C492.260836,97.6915756 490.235884,102.630482 488.243859,106.318199 C483.304952,115.537492 478.168489,124.658006 472.735691,133.597428 C470.827174,136.630379 468.377375,139.286653 465.508424,141.433826 C459.301865,146.158714 452.338006,146.059936 446.69119,140.725916 C442.450691,136.752464 438.782789,132.209142 435.792669,127.226238 C433.344155,123.093347 432.914926,118.069182 434.626905,113.580849 C436.338884,109.092515 440.005008,105.630435 444.583923,104.178006 C455.465981,100.424437 466.512669,97.2141479 477.509968,93.7569132 L477.674598,92.3904823 Z" fill="#000000" fill-rule="nonzero"></path>
                        <path d="M505.283087,69.0129904 C505.283087,57.2748553 503.850804,43.4623794 507.126945,29.9297749 C509.448232,20.3647588 517.317556,15.9855949 526.767331,18.6690675 C531.521794,20.0037901 536.102599,21.8935798 540.415177,24.2994212 C551.083215,30.2919614 552.449646,42.408746 543.790096,51.0353698 C536.661608,58.0980064 529.631897,65.2429582 522.536334,72.3220579 C521.3959,73.4909543 520.186444,74.5904598 518.914469,75.6146624 C512.214019,80.9322186 507.604373,79.2694534 505.283087,69.0129904 Z" fill="#000000" fill-rule="nonzero"></path>
                        <path d="M543.938264,145.714212 C535.959517,148.00591 527.530985,143.947466 524.347267,136.2809 C520.11627,127.209775 515.687717,118.171576 511.571961,109.10045 C509.761029,105.099936 506.88,100.589068 510.436013,96.4897749 C513.992026,92.3904823 518.881543,94.0203215 523.079614,95.4855305 C532.80926,98.8769132 542.456592,102.581093 552.021608,106.48283 C555.039105,107.769312 557.821062,109.549765 560.253119,111.750997 C566.064566,116.903923 566.970032,123.900707 562.590868,130.321286 C558.936077,135.737621 549.947267,144.956913 543.938264,145.714212 Z" fill="#000000" fill-rule="nonzero"></path>
                        <path d="M579.366688,71.0544051 C579.985968,75.2708006 580.354291,79.5202538 580.469711,83.7803215 C580.272154,95.6336977 570.196785,103.190225 558.754984,100.424437 C548.449132,97.9385209 538.126817,95.4855305 527.837428,92.9337621 C523.705209,91.8801286 518.634598,91.2874598 517.860836,86.0192926 C517.087074,80.7511254 521.334534,78.1828939 525.022251,76.1414791 C535.278714,70.3464952 545.568103,64.5021222 556.301994,59.6784566 C567.035884,54.854791 576.452733,59.3985852 579.366688,71.0544051 Z" fill="#000000" fill-rule="nonzero"></path>
                        <path d="M483.798842,73.0135048 L483.963473,73.128746 C477.049003,67.6465595 469.821736,62.5265595 463.351768,56.5669453 C459.894934,53.1492801 457.103665,49.1186871 455.120257,44.6806431 C452.996527,40.3014791 454.445273,35.6095177 457.918971,32.3004502 C464.17492,26.357299 471.500965,21.961672 480.259293,20.9409646 C484.38788,20.3185764 488.592785,21.3908571 491.91916,23.9143139 C495.245535,26.4377708 497.411106,30.1982644 497.924116,34.341865 C499.570418,45.4214791 500.986238,56.5504823 502.369132,67.6794855 C502.830096,71.4165916 503.258135,76.09209 499.241158,77.557299 C496.393055,78.5944695 492.474855,77.1621865 489.182251,76.2731833 C487.236958,75.4578395 485.42288,74.359407 483.798842,73.0135048 L483.798842,73.0135048 Z" fill="#000000" fill-rule="nonzero"></path>
                    </g>
                </g>
            </g>
        </g>
    </g>
</svg>